<?xml version="1.0" encoding="utf-8"?>
<!-- Generator: Adobe Illustrator 28.3.0, SVG Export Plug-In . SVG Version: 6.00 Build 0)  -->
<svg version="1.1" id="Capa_1" xmlns="http://www.w3.org/2000/svg" xmlns:xlink="http://www.w3.org/1999/xlink" x="0px" y="0px"
	 viewBox="0 0 98.83 34.75" style="enable-background:new 0 0 98.83 34.75;" xml:space="preserve">
<style type="text/css">
	.st0{fill:#E51D36;}
	.st1{fill:#D79309;}
	.st2{fill:#925F36;}
	.st3{fill:#AB1613;}
</style>
<g>
	<g>
		<g>
			<path class="st0" d="M44.72,18.49c-0.07,0.25-0.21,1.69-0.62,3.81c-0.5,2.57-1.39,4.26-3.58,4.26c-1.45,0-2.17-1.02-2.17-2.05
				c0-0.99,0.68-1.99,1.99-2.02l0.18,1.31c-0.61,0.09-0.92,0.58-0.92,1.04c0,0.5,0.34,0.98,1.01,0.98c1.77,0,1.9-2.17,2.52-5.36
				c-0.48,0.58-1.2,0.98-2.31,0.98c-1.51,0-2.45-1.11-2.89-2.63c-0.22,0.01-0.44,0.03-0.68,0.03c-3.49,0-5.01-2.05-5.01-4.01
				c0-1.83,1.32-3.59,3.62-3.59c0.48,0,0.91,0.12,1.29,0.34l-0.49,0.99c-0.34-0.19-0.68-0.31-1.13-0.31c-1.38,0-2.31,1.32-2.31,2.7
				c0,1.53,1.13,3.13,4.04,3.13c0.18,0,0.36,0,0.52-0.01c-0.07-0.47-0.12-0.99-0.12-1.53c0-3.77,1.99-8.34,5.55-8.34
				c1.71,0,2.52,1.26,2.52,2.91c0,2.74-2.26,6.56-6.45,7.51c0.28,1.26,0.92,2.08,1.97,2.08c2.17,0,2.23-2.63,2.92-4.11l1.19,0.52
				L44.72,18.49z M43.13,8.97c-2.49,0-4.07,4.39-4.07,7.79c0,0.39,0.01,0.77,0.06,1.11c3.58-0.95,5.21-4.57,5.21-6.88
				C44.33,9.81,43.92,8.97,43.13,8.97z"/>
		</g>
		<g>
			<path class="st0" d="M50.18,17.81c0.09,0,0.42,0.12,0.42,0.21c-0.74,1.94-1.48,3.49-2.94,3.49c-1.29,0-1.82-1.19-1.82-2.58
				c0-2.02,1.11-4.48,2.77-4.48c0.74,0,1.11,0.53,1.11,1.22c0,1.05-0.89,2.48-2.64,2.76c0,0.07,0,0.15,0,0.22
				c0,0.89,0.25,1.6,0.93,1.6C48.89,20.24,49.61,19.32,50.18,17.81z M47.12,17.86c1.11-0.55,1.6-1.57,1.6-2.12
				c0-0.22-0.09-0.37-0.24-0.37C47.88,15.36,47.3,16.62,47.12,17.86z"/>
		</g>
		<g>
			<path class="st0" d="M53.53,17.81c0.07,0,0.36,0.12,0.36,0.19c0,0.01,0,0.01,0,0.01c-0.88,2.37-1.56,3.49-2.52,3.49
				c-0.89,0-1.25-0.88-1.25-2.42c0-1.08,0.18-2.51,0.48-4.2c0.67-3.72,1.6-5.4,2.46-5.4c0.77,0,0.99,0.62,0.99,1.38
				c0,0.88-0.3,1.93-0.45,2.39c-0.61,1.94-1.6,3.4-2.2,4.12c-0.07,0.64-0.12,1.22-0.12,1.69c0,0.99,0.22,1.31,0.56,1.31
				C52.33,20.38,52.89,19.46,53.53,17.81z M53.25,10.48c-0.4,0-1.28,3.2-1.71,5.96c0.74-1.35,1.84-3.83,1.85-5.64
				C53.4,10.6,53.32,10.48,53.25,10.48z"/>
		</g>
		<g>
			<path class="st0" d="M56.97,14.61h1.05c-0.44,1.97-0.73,3.58-0.93,5.04c-0.03,0.16-0.03,0.28-0.03,0.39
				c0,0.22,0.04,0.33,0.12,0.33c0.16,0,0.79-0.71,1.5-2.55c0.09,0,0.41,0.12,0.41,0.21c-0.9,2.37-1.63,3.41-2.31,3.41
				c-0.48,0-0.74-0.43-0.74-1.45c0-0.04,0-0.1,0-0.16c-0.34,0.91-0.86,1.69-1.72,1.69c-0.73,0-1.02-0.8-1.02-1.88
				c0-2.09,1.14-5.18,2.55-5.18c0.55,0,0.86,0.33,0.96,0.99L56.97,14.61z M54.54,19.47c0,0.46,0.09,0.77,0.31,0.77
				c0.68,0,1.53-2.42,1.53-3.8c0-0.55-0.13-0.93-0.46-0.93C55.29,15.51,54.54,18.12,54.54,19.47z"/>
		</g>
		<g>
			<path class="st0" d="M60.98,11.09c-0.07,1.22-0.22,2.34-0.48,3.53c0.24,0,0.45-0.01,0.58-0.03l-0.13,0.7
				c-0.06,0.01-0.34,0.01-0.61,0.01c-0.13,0.56-0.28,1.14-0.46,1.75c-0.15,1.02-0.22,1.8-0.22,2.34c0,0.62,0.1,0.95,0.3,0.95
				c0.4,0,0.98-1.39,1.42-2.54c0.09,0,0.42,0.13,0.42,0.21c-0.88,2.37-1.34,3.41-2.3,3.41c-0.65,0-0.92-0.8-0.92-2.06
				c0-1.08,0.16-2.55,0.5-4.07c-0.34,0-0.59,0-0.65-0.01l0.1-0.7c0.1,0,0.36,0.01,0.67,0.01c0.19-1.02,0.39-2.02,0.73-3.52H60.98z"
				/>
		</g>
		<g>
			<path class="st0" d="M67.06,17.16l-0.13,0.77h-2.66l0.13-0.77H67.06z"/>
		</g>
		<g>
			<path class="st0" d="M73.35,17.81c0.07,0,0.36,0.12,0.36,0.19c0,0.01,0,0.01,0,0.01c-0.88,2.37-1.56,3.49-2.52,3.49
				c-0.89,0-1.25-0.88-1.25-2.42c0-1.08,0.18-2.51,0.48-4.2c0.67-3.72,1.6-5.4,2.46-5.4c0.77,0,0.99,0.62,0.99,1.38
				c0,0.88-0.3,1.93-0.44,2.39c-0.61,1.94-1.6,3.4-2.2,4.12c-0.07,0.64-0.12,1.22-0.12,1.69c0,0.99,0.22,1.31,0.56,1.31
				C72.15,20.38,72.71,19.46,73.35,17.81z M73.07,10.48c-0.4,0-1.28,3.2-1.71,5.96c0.74-1.35,1.84-3.83,1.85-5.64
				C73.22,10.6,73.14,10.48,73.07,10.48z"/>
		</g>
		<g>
			<path class="st0" d="M78.63,18.02c-0.34,0.89-1.01,1.51-1.72,1.77c-0.5,1.08-1.26,1.72-2.21,1.72c-1.02,0-1.47-1.07-1.47-2.42
				c0-0.83,0.16-1.77,0.46-2.64l0.53,0.13c0.16-1.14,0.79-2.14,1.84-2.14c0.99,0,1.51,1.14,1.51,2.48c0,0.73-0.18,1.48-0.37,2.14
				c0.39-0.18,0.74-0.55,1.01-1.25C78.3,17.81,78.63,17.93,78.63,18.02z M75.56,19.8c-0.62-0.24-1.02-0.83-1.23-1.54
				c-0.03,0.22-0.04,0.45-0.04,0.64c0,0.88,0.24,1.48,0.61,1.48c0.04,0,0.07,0,0.12-0.02C75.2,20.3,75.38,20.1,75.56,19.8z
				 M74.97,17.41c0,0.8,0.24,1.57,0.9,1.77c0.33-0.79,0.55-1.82,0.55-2.61c0-0.67-0.16-1.17-0.58-1.17c-0.03,0-0.07,0.01-0.1,0.01
				C75.31,15.5,74.97,16.46,74.97,17.41z"/>
		</g>
		<g>
			<path class="st0" d="M80.32,18.63c-0.19-0.5-0.3-1.13-0.3-1.78c0-1.59,0.58-3.26,1.56-3.26c0.59,0,1.02,0.47,1.02,1.31
				c0,1.32-0.56,2.91-1.34,4.27c0.12,0.06,0.25,0.1,0.42,0.1c0.67,0,1.05-0.61,1.37-1.45c0.09,0,0.42,0.12,0.42,0.21
				c-0.36,0.99-0.91,1.69-1.87,1.69c-0.21,0-0.4-0.04-0.56-0.15c-0.43,0.73-0.92,1.35-1.39,1.8h-0.8c-0.09-1.23-0.18-2.34-0.22-3.34
				c-0.09-0.01-0.4-0.1-0.4-0.21l0.34-0.89c-0.01-0.28-0.01-0.56-0.01-0.82c0-0.56,0.01-1.07,0.07-1.51h1.05
				c0.01,0.06,0.03,0.15,0.03,0.25c0,0.4-0.12,0.8-0.42,1.57c0.04,0.83,0.12,2.03,0.27,3.55C79.83,19.55,80.1,19.09,80.32,18.63z
				 M81.4,14.24c-0.46,0-0.85,1.42-0.85,2.76c0,0.33,0.03,0.64,0.07,0.93c0.64-1.5,0.93-2.95,0.93-3.44
				C81.57,14.29,81.51,14.24,81.4,14.24z"/>
		</g>
		<g>
			<path class="st0" d="M91.98,13.78c2.31,0,3.38,1.47,3.38,3.03c0,1.81-1.42,3.75-4.05,3.75c-1.35,0-2.33-0.59-2.94-1.34l0.71-0.71
				c0.62,0.83,1.28,1.16,2.24,1.16c1.94,0,2.89-1.44,2.89-2.79c0-1.22-0.76-2.36-2.24-2.36c-3.71,0-3.56,6.99-7.21,6.99
				c-1.29,0-1.82-1.19-1.82-2.58c0-2.02,1.11-4.48,2.77-4.48c0.74,0,1.11,0.53,1.11,1.22c0,1.07-0.91,2.49-2.67,2.77
				c-0.03,0.24-0.04,0.46-0.04,0.67c0,0.93,0.25,1.68,0.92,1.68C86.77,20.78,87.53,13.78,91.98,13.78z M84.24,17.86
				c1.11-0.55,1.6-1.57,1.6-2.12c0-0.22-0.09-0.37-0.24-0.37C85.02,15.36,84.47,16.58,84.24,17.86z"/>
		</g>
	</g>
	<g>
		<g id="XMLID_2_">
			<g>
				<g>
					<path class="st0" d="M11.28,18.36v-0.89H9.87v1.32v0.87v0.35c0,0.05,0,0.09-0.01,0.13c-0.03,0.33-0.18,0.62-0.4,0.84
						c-0.25,0.25-0.59,0.4-0.97,0.4c-0.76,0-1.38-0.62-1.38-1.38v-2.54H5.6c-0.93,0-1.69-0.76-1.69-1.68c0-0.93,0.76-1.69,1.69-1.69
						h0.83c-0.03-0.94,0.16-4.64,4.4-5.43c0,0,3.04-0.62,5.48,2.85c0,0,2.06-3.28,5.37-2.8c0,0,3.44,0.16,4.36,3.88
						c0,0,0.17,1.19,0.16,1.5h0.83c0.93,0,1.68,0.76,1.68,1.69c0,0.93-0.76,1.68-1.68,1.68h-1.62h-2.88h-0.95h-1.26h-1.01h-1.53
						h-0.75h-1.46h-0.6H14.2v0.78v0.62v1.5v0.75v1.44v0.56v1c0,0.25-0.06,0.48-0.18,0.69c-0.25,0.46-0.73,0.77-1.29,0.77
						c-0.8,0-1.46-0.66-1.46-1.46v-2.39V18.36z"/>
				</g>
				<g>
					<path class="st1" d="M23.24,18.18l-0.7-0.7h2.88c-0.21,0.76-1.02,1.59-1.02,1.59l-0.13,0.13l-0.1-0.1L23.24,18.18z"/>
				</g>
				<g>
					<polygon class="st1" points="24.27,19.2 23.17,20.31 23.16,20.3 22.14,19.28 23.24,18.18 24.17,19.11 					"/>
				</g>
				<g>
					<polygon class="st1" points="23.24,18.18 22.14,19.28 21,18.14 21.59,17.55 21.59,17.48 22.54,17.48 					"/>
				</g>
				<g>
					<polygon class="st1" points="23.17,20.31 21.9,21.59 21.89,21.58 20.86,20.55 22.14,19.28 23.16,20.3 					"/>
				</g>
				<g>
					
						<rect x="20.03" y="18.54" transform="matrix(0.7061 -0.7081 0.7081 0.7061 -7.5486 20.5069)" class="st1" width="1.8" height="1.61"/>
				</g>
				<g>
					<polygon class="st1" points="21.9,21.59 20.7,22.82 20.67,22.79 19.65,21.77 20.86,20.55 21.89,21.58 					"/>
				</g>
				<g>
					<polygon class="st1" points="21.59,17.48 21.59,17.55 21,18.14 20.33,17.48 					"/>
				</g>
				<g>
					<polygon class="st1" points="20.33,17.48 21,18.14 19.72,19.41 18.61,18.3 19.32,17.59 19.32,17.48 					"/>
				</g>
				<g>
					<polygon class="st1" points="20.86,20.55 19.65,21.77 18.51,20.63 19.72,19.41 					"/>
				</g>
				<g>
					<polygon class="st1" points="20.7,22.82 19.53,24 19.49,23.97 18.47,22.94 19.65,21.77 20.67,22.79 					"/>
				</g>
				<g>
					<polygon class="st1" points="19.72,19.41 18.51,20.63 17.39,19.52 18.61,18.3 					"/>
				</g>
				<g>
					
						<rect x="17.66" y="20.99" transform="matrix(0.7071 -0.7071 0.7071 0.7071 -9.9915 19.4563)" class="st1" width="1.66" height="1.61"/>
				</g>
				<g>
					<path class="st1" d="M19.53,24l-0.71,0.73c-0.14,0.14-0.28,0.28-0.42,0.39l-1.05-1.05l1.13-1.13l1.02,1.02L19.53,24z"/>
				</g>
				<g>
					<polygon class="st1" points="19.32,17.48 19.32,17.59 18.61,18.3 17.79,17.48 					"/>
				</g>
				<g>
					<polygon class="st1" points="18.61,18.3 17.39,19.52 16.28,18.41 17.03,17.66 17.03,17.48 17.79,17.48 					"/>
				</g>
				<g>
					
						<rect x="16.53" y="19.87" transform="matrix(0.7071 -0.7071 0.7071 0.7071 -9.5252 18.3307)" class="st1" width="1.66" height="1.58"/>
				</g>
				<g>
					
						<rect x="16.54" y="22.13" transform="matrix(0.7071 -0.7071 0.7071 0.7071 -11.1415 18.9794)" class="st1" width="1.59" height="1.61"/>
				</g>
				<g>
					<path class="st1" d="M17.34,24.07l1.05,1.05c-0.47,0.4-0.91,0.64-1.32,0.76l-0.77-0.77L17.34,24.07z"/>
				</g>
				<g>
					
						<rect x="15.42" y="18.76" transform="matrix(0.7071 -0.7071 0.7071 0.7071 -9.0641 17.2175)" class="st1" width="1.66" height="1.57"/>
				</g>
				<g>
					
						<rect x="15.52" y="23.22" transform="matrix(0.7082 -0.706 0.706 0.7082 -12.2164 18.4859)" class="st1" width="1.47" height="1.61"/>
				</g>
				<g>
					<polygon class="st1" points="17.33,21.81 16.21,22.93 15.09,21.82 16.22,20.69 					"/>
				</g>
				<g>
					<path class="st1" d="M16.3,25.11l0.77,0.77c-0.59,0.19-1.11,0.15-1.55,0.01L16.3,25.11z"/>
				</g>
				<g>
					<polygon class="st1" points="17.03,17.48 17.03,17.66 16.28,18.41 15.58,17.7 15.58,17.48 					"/>
				</g>
				<g>
					<path class="st1" d="M16.3,25.11l-0.78,0.78c-0.72-0.23-1.22-0.74-1.41-0.96l0.12-0.02l0.93-0.93L16.3,25.11z"/>
				</g>
				<g>
					<polygon class="st1" points="16.28,18.41 15.11,19.58 14.4,18.87 14.2,18.87 14.2,18.26 14.98,17.48 15.58,17.48 15.58,17.7 
											"/>
				</g>
				<g>
					<polygon class="st1" points="16.22,20.69 15.09,21.82 14.4,21.12 14.2,21.12 14.2,20.38 14.31,20.38 15.11,19.58 					"/>
				</g>
				<g>
					<polygon class="st1" points="16.21,22.93 15.17,23.97 14.31,23.12 14.2,23.12 14.2,22.56 14.35,22.56 15.09,21.82 					"/>
				</g>
				<g>
					<path class="st1" d="M15.17,23.97l-0.93,0.93l-0.12,0.02c-0.06-0.07-0.09-0.11-0.09-0.11h0c0.11-0.2,0.18-0.44,0.18-0.69v-1
						h0.12L15.17,23.97z"/>
				</g>
				<g>
					<polygon class="st1" points="15.11,19.58 14.31,20.38 14.2,20.38 14.2,18.87 14.4,18.87 					"/>
				</g>
				<g>
					<polygon class="st1" points="15.09,21.82 14.35,22.56 14.2,22.56 14.2,21.12 14.4,21.12 					"/>
				</g>
				<g>
					<path class="st1" d="M10.42,19.22l0.86-0.86v3.37l-1.42-1.59c0-0.04,0.01-0.09,0.01-0.13v-0.35h0.11L10.42,19.22z"/>
				</g>
				<g>
					<polygon class="st1" points="11.28,17.48 11.28,18.36 10.42,19.22 9.98,18.79 9.87,18.79 9.87,17.48 					"/>
				</g>
				<g>
					<polygon class="st1" points="10.42,19.22 9.98,19.66 9.87,19.66 9.87,18.79 9.98,18.79 					"/>
				</g>
			</g>
			<g>
				<g>
					
						<rect x="15.53" y="22.55" transform="matrix(0.7071 -0.7071 0.7071 0.7071 -12.7361 18.2898)" class="st2" width="0.36" height="3.95"/>
				</g>
				<g>
					
						<rect x="19.66" y="16.63" transform="matrix(0.7071 -0.7071 0.7071 0.7071 -7.9974 19.7464)" class="st2" width="0.36" height="5.8"/>
				</g>
				<g>
					
						<rect x="21.57" y="16.89" transform="matrix(0.7067 -0.7076 0.7076 0.7067 -6.9862 20.9269)" class="st2" width="0.36" height="3.99"/>
				</g>
				<g>
					
						<rect x="23.18" y="17.14" transform="matrix(0.7071 -0.7071 0.7071 0.7071 -6.0941 21.872)" class="st2" width="0.36" height="2.3"/>
				</g>
				<g>
					
						<rect x="16.22" y="20.29" transform="matrix(0.7074 -0.7068 0.7068 0.7074 -11.5453 18.3565)" class="st2" width="0.36" height="5.66"/>
				</g>
				<g>
					<polygon class="st2" points="15.51,26.16 15.26,25.9 23.72,17.44 23.98,17.69 23.37,18.3 22.26,19.41 20.99,20.68 17.47,24.2 
											"/>
				</g>
				<g>
					
						<rect x="12.71" y="21.05" transform="matrix(0.7071 -0.7071 0.7071 0.7071 -9.7625 18.8834)" class="st2" width="10.4" height="0.36"/>
				</g>
				<g>
					
						<rect x="13.32" y="19.9" transform="matrix(0.7071 -0.7071 0.7071 0.7071 -9.265 17.7833)" class="st2" width="7.03" height="0.36"/>
				</g>
				<g>
					
						<rect x="10.39" y="18.55" transform="matrix(0.7071 -0.7071 0.7071 0.7071 -10.6049 13.1448)" class="st2" width="0.36" height="1.64"/>
				</g>
				<g>
					<polygon class="st2" points="10.1,19.79 9.85,19.53 10.29,19.1 11.15,18.24 11.4,18.49 					"/>
				</g>
				<g>
					
						<rect x="17.94" y="16.64" transform="matrix(0.7071 -0.7071 0.7071 0.7071 -9.0077 18.7439)" class="st2" width="0.36" height="7.2"/>
				</g>
				<g>
					
						<rect x="16.77" y="17.82" transform="matrix(0.7071 -0.7071 0.7071 0.7071 -10.1833 18.2569)" class="st2" width="0.36" height="7.2"/>
				</g>
				<g>
					
						<rect x="14.04" y="17.69" transform="matrix(0.7071 -0.7071 0.7071 0.7071 -8.3617 15.5471)" class="st2" width="1.1" height="0.36"/>
				</g>
				<g>
					
						<rect x="13.75" y="18.84" transform="matrix(0.7071 -0.7071 0.7071 0.7071 -8.8567 16.6535)" class="st2" width="3.84" height="0.36"/>
				</g>
				<g>
					<path class="st2" d="M16.28,26.55c-0.31,0-0.62-0.05-0.92-0.15c-0.82-0.27-1.39-0.82-1.65-1.13c-0.07-0.09-0.11-0.14-0.11-0.14
						l0.86-0.64c0,0,0.03,0.04,0.07,0.09c0.15,0.17,0.57,0.61,1.17,0.8c0.39,0.13,0.8,0.13,1.22-0.01c0.37-0.12,0.75-0.34,1.14-0.66
						c0.11-0.09,0.24-0.21,0.39-0.36l5.58-5.65c0.2-0.21,0.75-0.85,0.89-1.37l1.03,0.29c-0.24,0.86-1.06,1.72-1.15,1.82l-0.13,0.13
						L19.2,25.1c-0.18,0.18-0.33,0.31-0.46,0.43c-0.49,0.41-0.99,0.7-1.5,0.86C16.91,26.5,16.6,26.55,16.28,26.55z"/>
				</g>
				<g>
					<polygon class="st2" points="10.91,22.12 10.88,22.09 9.46,20.5 10.26,19.79 11.68,21.38 11.48,21.55 					"/>
				</g>
				<g>
					<path class="st3" d="M12.74,26.03c-1.05,0-1.9-0.85-1.9-1.9v-6.2h-0.52v2.09c0,0.06,0,0.12-0.01,0.17
						c-0.04,0.43-0.23,0.83-0.53,1.12c-0.34,0.34-0.8,0.53-1.29,0.53c-1,0-1.82-0.82-1.82-1.83v-2.09H5.6
						c-1.18,0-2.13-0.96-2.13-2.13c0-1.18,0.96-2.13,2.13-2.13h0.39C6.07,12.29,6.67,9,10.75,8.24c0.12-0.02,3.05-0.58,5.56,2.54
						c0.26-0.32,0.65-0.76,1.17-1.18c1.31-1.07,2.78-1.53,4.25-1.32c0.16,0.01,1.03,0.09,1.99,0.59c0.97,0.5,2.24,1.54,2.75,3.62
						l0.01,0.05c0.02,0.14,0.1,0.69,0.14,1.12h0.42c1.17,0,2.13,0.96,2.13,2.13c0,1.17-0.96,2.13-2.13,2.13H14.64v6.2
						c0,0.31-0.08,0.62-0.23,0.9C14.08,25.65,13.44,26.03,12.74,26.03z M9.42,17.03h2.3v7.1c0,0.56,0.45,1.01,1.01,1.01
						c0.37,0,0.71-0.21,0.89-0.54c0.08-0.15,0.12-0.31,0.12-0.47v-7.1h13.28c0.68,0,1.24-0.55,1.24-1.24c0-0.68-0.55-1.24-1.24-1.24
						h-1.28l0.01-0.45c0-0.2-0.09-0.96-0.16-1.41c-0.35-1.4-1.12-2.42-2.29-3.02c-0.88-0.45-1.64-0.5-1.65-0.5l-0.04,0
						c-2.98-0.43-4.91,2.57-4.93,2.6l-0.36,0.57l-0.39-0.55c-2.25-3.19-5-2.67-5.02-2.67c-3.86,0.72-4.07,3.99-4.04,4.98l0.01,0.46
						H5.6c-0.68,0-1.24,0.56-1.24,1.24c0,0.68,0.56,1.24,1.24,1.24h1.96v2.98c0,0.51,0.42,0.93,0.93,0.93c0.25,0,0.48-0.1,0.66-0.27
						c0.15-0.15,0.25-0.35,0.27-0.57c0-0.03,0.01-0.06,0.01-0.09V17.03z"/>
				</g>
				<g>
					<path class="st3" d="M11.18,14.55H6.43c-0.25,0-0.45-0.2-0.45-0.45c0-0.25,0.2-0.45,0.45-0.45h4.75c0.25,0,0.45,0.2,0.45,0.45
						C11.62,14.35,11.42,14.55,11.18,14.55z"/>
				</g>
				<g>
					<path class="st3" d="M26.2,14.55h-2.94c-0.25,0-0.45-0.2-0.45-0.45c0-0.25,0.2-0.45,0.45-0.45h2.94c0.25,0,0.45,0.2,0.45,0.45
						C26.65,14.35,26.45,14.55,26.2,14.55z"/>
				</g>
				<g>
					<path class="st3" d="M20,14.55h-3.36c-0.25,0-0.45-0.2-0.45-0.45c0-0.25,0.2-0.45,0.45-0.45H20c0.25,0,0.45,0.2,0.45,0.45
						C20.44,14.35,20.24,14.55,20,14.55z"/>
				</g>
			</g>
		</g>
	</g>
</g>
</svg>
